# Tiled2Unity generated file. Do not modify by hand.
# Wavefront file for 'outside_house_mesh_0003.obj'

# Vertices (Count = 100)
v -8 -17 0
v -9 -17 0
v -9 -16 0
v -8 -16 0
v -9 -17 0
v -10 -17 0
v -10 -16 0
v -9 -16 0
v -10 -17 0
v -11 -17 0
v -11 -16 0
v -10 -16 0
v -7 -18 0
v -8 -18 0
v -8 -17 0
v -7 -17 0
v -8 -18 0
v -9 -18 0
v -9 -17 0
v -8 -17 0
v -9 -18 0
v -10 -18 0
v -10 -17 0
v -9 -17 0
v -10 -18 0
v -11 -18 0
v -11 -17 0
v -10 -17 0
v -11 -18 0
v -12 -18 0
v -12 -17 0
v -11 -17 0
v -12 -18 0
v -13 -18 0
v -13 -17 0
v -12 -17 0
v -6 -19 0
v -7 -19 0
v -7 -18 0
v -6 -18 0
v -7 -19 0
v -8 -19 0
v -8 -18 0
v -7 -18 0
v -8 -19 0
v -9 -19 0
v -9 -18 0
v -8 -18 0
v -9 -19 0
v -10 -19 0
v -10 -18 0
v -9 -18 0
v -10 -19 0
v -11 -19 0
v -11 -18 0
v -10 -18 0
v -11 -19 0
v -12 -19 0
v -12 -18 0
v -11 -18 0
v -12 -19 0
v -13 -19 0
v -13 -18 0
v -12 -18 0
v -13 -19 0
v -14 -19 0
v -14 -18 0
v -13 -18 0
v -6 -20 0
v -7 -20 0
v -7 -19 0
v -6 -19 0
v -7 -20 0
v -8 -20 0
v -8 -19 0
v -7 -19 0
v -8 -20 0
v -9 -20 0
v -9 -19 0
v -8 -19 0
v -9 -20 0
v -10 -20 0
v -10 -19 0
v -9 -19 0
v -10 -20 0
v -11 -20 0
v -11 -19 0
v -10 -19 0
v -11 -20 0
v -12 -20 0
v -12 -19 0
v -11 -19 0
v -12 -20 0
v -13 -20 0
v -13 -19 0
v -12 -19 0
v -13 -20 0
v -14 -20 0
v -14 -19 0
v -13 -19 0

# Texture cooridinates (Count = 26)
vt 0.05 0.8055556
vt 0.075 0.8055556
vt 0.075 0.8333333
vt 0.05 0.8333333
vt 0.1 0.8055556
vt 0.1 0.8333333
vt 0.125 0.8055556
vt 0.125 0.8333333
vt 0.075 0.6944444
vt 0.1 0.6944444
vt 0.1 0.7222222
vt 0.075 0.7222222
vt 0.075 0.7777778
vt 0.1 0.7777778
vt 0.05 0.6944444
vt 0.05 0.7222222
vt 0 0.9166667
vt 0.025 0.9166667
vt 0.025 0.9444444
vt 0 0.9444444
vt 0.05 0.7777778
vt 0.075 0.9444444
vt 0.1 0.9444444
vt 0.1 0.9722222
vt 0.075 0.9722222
vt 0.125 0.7777778

# Normal
vn 0 0 -1

# Mesh description
g outside_house_mesh_0003

# Faces
f 1/1/1 2/2/1 3/3/1 4/4/1
f 5/2/1 6/5/1 7/6/1 8/3/1
f 9/5/1 10/7/1 11/8/1 12/6/1
f 13/1/1 14/2/1 15/3/1 16/4/1
f 17/9/1 18/10/1 19/11/1 20/12/1
f 21/13/1 22/14/1 23/5/1 24/2/1
f 25/15/1 26/9/1 27/12/1 28/16/1
f 29/2/1 30/5/1 31/6/1 32/3/1
f 33/5/1 34/7/1 35/8/1 36/6/1
f 37/1/1 38/2/1 39/3/1 40/4/1
f 41/9/1 42/10/1 43/11/1 44/12/1
f 45/13/1 46/14/1 47/5/1 48/2/1
f 49/13/1 50/14/1 51/5/1 52/2/1
f 53/17/1 54/18/1 55/19/1 56/20/1
f 57/13/1 58/14/1 59/5/1 60/2/1
f 61/15/1 62/9/1 63/12/1 64/16/1
f 65/5/1 66/7/1 67/8/1 68/6/1
f 69/21/1 70/13/1 71/2/1 72/1/1
f 73/13/1 74/14/1 75/5/1 76/2/1
f 77/22/1 78/23/1 79/24/1 80/25/1
f 81/13/1 82/14/1 83/5/1 84/2/1
f 85/13/1 86/14/1 87/5/1 88/2/1
f 89/13/1 90/14/1 91/5/1 92/2/1
f 93/13/1 94/14/1 95/5/1 96/2/1
f 97/14/1 98/26/1 99/7/1 100/5/1

