# Tiled2Unity generated file. Do not modify by hand.
# Wavefront file for 'outside_house_mesh_0004.obj'

# Vertices (Count = 656)
v 0 -1 0
v -1 -1 0
v -1 0 0
v 0 0 0
v -1 -1 0
v -2 -1 0
v -2 0 0
v -1 0 0
v -2 -1 0
v -3 -1 0
v -3 0 0
v -2 0 0
v -3 -1 0
v -4 -1 0
v -4 0 0
v -3 0 0
v -4 -1 0
v -5 -1 0
v -5 0 0
v -4 0 0
v -5 -1 0
v -6 -1 0
v -6 0 0
v -5 0 0
v -6 -1 0
v -7 -1 0
v -7 0 0
v -6 0 0
v -7 -1 0
v -8 -1 0
v -8 0 0
v -7 0 0
v -8 -1 0
v -9 -1 0
v -9 0 0
v -8 0 0
v -9 -1 0
v -10 -1 0
v -10 0 0
v -9 0 0
v -10 -1 0
v -11 -1 0
v -11 0 0
v -10 0 0
v -11 -1 0
v -12 -1 0
v -12 0 0
v -11 0 0
v -12 -1 0
v -13 -1 0
v -13 0 0
v -12 0 0
v -13 -1 0
v -14 -1 0
v -14 0 0
v -13 0 0
v -14 -1 0
v -15 -1 0
v -15 0 0
v -14 0 0
v -15 -1 0
v -16 -1 0
v -16 0 0
v -15 0 0
v -16 -1 0
v -17 -1 0
v -17 0 0
v -16 0 0
v -17 -1 0
v -18 -1 0
v -18 0 0
v -17 0 0
v -18 -1 0
v -19 -1 0
v -19 0 0
v -18 0 0
v -19 -1 0
v -20 -1 0
v -20 0 0
v -19 0 0
v 0 -2 0
v -1 -2 0
v -1 -1 0
v 0 -1 0
v -3 -2 0
v -4 -2 0
v -4 -1 0
v -3 -1 0
v -4 -2 0
v -5 -2 0
v -5 -1 0
v -4 -1 0
v -5 -2 0
v -6 -2 0
v -6 -1 0
v -5 -1 0
v -6 -2 0
v -7 -2 0
v -7 -1 0
v -6 -1 0
v -7 -2 0
v -8 -2 0
v -8 -1 0
v -7 -1 0
v -8 -2 0
v -9 -2 0
v -9 -1 0
v -8 -1 0
v -9 -2 0
v -10 -2 0
v -10 -1 0
v -9 -1 0
v -10 -2 0
v -11 -2 0
v -11 -1 0
v -10 -1 0
v -11 -2 0
v -12 -2 0
v -12 -1 0
v -11 -1 0
v -12 -2 0
v -13 -2 0
v -13 -1 0
v -12 -1 0
v -13 -2 0
v -14 -2 0
v -14 -1 0
v -13 -1 0
v -14 -2 0
v -15 -2 0
v -15 -1 0
v -14 -1 0
v -15 -2 0
v -16 -2 0
v -16 -1 0
v -15 -1 0
v -17 -2 0
v -18 -2 0
v -18 -1 0
v -17 -1 0
v -18 -2 0
v -19 -2 0
v -19 -1 0
v -18 -1 0
v -19 -2 0
v -20 -2 0
v -20 -1 0
v -19 -1 0
v 0 -3 0
v -1 -3 0
v -1 -2 0
v 0 -2 0
v -1 -3 0
v -2 -3 0
v -2 -2 0
v -1 -2 0
v -9 -3 0
v -10 -3 0
v -10 -2 0
v -9 -2 0
v -10 -3 0
v -11 -3 0
v -11 -2 0
v -10 -2 0
v -11 -3 0
v -12 -3 0
v -12 -2 0
v -11 -2 0
v -12 -3 0
v -13 -3 0
v -13 -2 0
v -12 -2 0
v -13 -3 0
v -14 -3 0
v -14 -2 0
v -13 -2 0
v -14 -3 0
v -15 -3 0
v -15 -2 0
v -14 -2 0
v -15 -3 0
v -16 -3 0
v -16 -2 0
v -15 -2 0
v -16 -3 0
v -17 -3 0
v -17 -2 0
v -16 -2 0
v -17 -3 0
v -18 -3 0
v -18 -2 0
v -17 -2 0
v -18 -3 0
v -19 -3 0
v -19 -2 0
v -18 -2 0
v -19 -3 0
v -20 -3 0
v -20 -2 0
v -19 -2 0
v 0 -4 0
v -1 -4 0
v -1 -3 0
v 0 -3 0
v -1 -4 0
v -2 -4 0
v -2 -3 0
v -1 -3 0
v -9 -4 0
v -10 -4 0
v -10 -3 0
v -9 -3 0
v -10 -4 0
v -11 -4 0
v -11 -3 0
v -10 -3 0
v -11 -4 0
v -12 -4 0
v -12 -3 0
v -11 -3 0
v -12 -4 0
v -13 -4 0
v -13 -3 0
v -12 -3 0
v -13 -4 0
v -14 -4 0
v -14 -3 0
v -13 -3 0
v -14 -4 0
v -15 -4 0
v -15 -3 0
v -14 -3 0
v -15 -4 0
v -16 -4 0
v -16 -3 0
v -15 -3 0
v -16 -4 0
v -17 -4 0
v -17 -3 0
v -16 -3 0
v -17 -4 0
v -18 -4 0
v -18 -3 0
v -17 -3 0
v -18 -4 0
v -19 -4 0
v -19 -3 0
v -18 -3 0
v -19 -4 0
v -20 -4 0
v -20 -3 0
v -19 -3 0
v 0 -5 0
v -1 -5 0
v -1 -4 0
v 0 -4 0
v -1 -5 0
v -2 -5 0
v -2 -4 0
v -1 -4 0
v -9 -5 0
v -10 -5 0
v -10 -4 0
v -9 -4 0
v -10 -5 0
v -11 -5 0
v -11 -4 0
v -10 -4 0
v -11 -5 0
v -12 -5 0
v -12 -4 0
v -11 -4 0
v -12 -5 0
v -13 -5 0
v -13 -4 0
v -12 -4 0
v -13 -5 0
v -14 -5 0
v -14 -4 0
v -13 -4 0
v -14 -5 0
v -15 -5 0
v -15 -4 0
v -14 -4 0
v -15 -5 0
v -16 -5 0
v -16 -4 0
v -15 -4 0
v -16 -5 0
v -17 -5 0
v -17 -4 0
v -16 -4 0
v -17 -5 0
v -18 -5 0
v -18 -4 0
v -17 -4 0
v -18 -5 0
v -19 -5 0
v -19 -4 0
v -18 -4 0
v -19 -5 0
v -20 -5 0
v -20 -4 0
v -19 -4 0
v 0 -6 0
v -1 -6 0
v -1 -5 0
v 0 -5 0
v -1 -6 0
v -2 -6 0
v -2 -5 0
v -1 -5 0
v -12 -6 0
v -13 -6 0
v -13 -5 0
v -12 -5 0
v -13 -6 0
v -14 -6 0
v -14 -5 0
v -13 -5 0
v -14 -6 0
v -15 -6 0
v -15 -5 0
v -14 -5 0
v -15 -6 0
v -16 -6 0
v -16 -5 0
v -15 -5 0
v -17 -6 0
v -18 -6 0
v -18 -5 0
v -17 -5 0
v -18 -6 0
v -19 -6 0
v -19 -5 0
v -18 -5 0
v -19 -6 0
v -20 -6 0
v -20 -5 0
v -19 -5 0
v 0 -7 0
v -1 -7 0
v -1 -6 0
v 0 -6 0
v -1 -7 0
v -2 -7 0
v -2 -6 0
v -1 -6 0
v -17 -7 0
v -18 -7 0
v -18 -6 0
v -17 -6 0
v -18 -7 0
v -19 -7 0
v -19 -6 0
v -18 -6 0
v -19 -7 0
v -20 -7 0
v -20 -6 0
v -19 -6 0
v 0 -8 0
v -1 -8 0
v -1 -7 0
v 0 -7 0
v -1 -8 0
v -2 -8 0
v -2 -7 0
v -1 -7 0
v -6 -8 0
v -7 -8 0
v -7 -7 0
v -6 -7 0
v -12 -8 0
v -13 -8 0
v -13 -7 0
v -12 -7 0
v -17 -8 0
v -18 -8 0
v -18 -7 0
v -17 -7 0
v -18 -8 0
v -19 -8 0
v -19 -7 0
v -18 -7 0
v -19 -8 0
v -20 -8 0
v -20 -7 0
v -19 -7 0
v 0 -9 0
v -1 -9 0
v -1 -8 0
v 0 -8 0
v -1 -9 0
v -2 -9 0
v -2 -8 0
v -1 -8 0
v -18 -9 0
v -19 -9 0
v -19 -8 0
v -18 -8 0
v -19 -9 0
v -20 -9 0
v -20 -8 0
v -19 -8 0
v 0 -10 0
v -1 -10 0
v -1 -9 0
v 0 -9 0
v -1 -10 0
v -2 -10 0
v -2 -9 0
v -1 -9 0
v -18 -10 0
v -19 -10 0
v -19 -9 0
v -18 -9 0
v -19 -10 0
v -20 -10 0
v -20 -9 0
v -19 -9 0
v 0 -11 0
v -1 -11 0
v -1 -10 0
v 0 -10 0
v -1 -11 0
v -2 -11 0
v -2 -10 0
v -1 -10 0
v -19 -11 0
v -20 -11 0
v -20 -10 0
v -19 -10 0
v 0 -12 0
v -1 -12 0
v -1 -11 0
v 0 -11 0
v -1 -12 0
v -2 -12 0
v -2 -11 0
v -1 -11 0
v -19 -12 0
v -20 -12 0
v -20 -11 0
v -19 -11 0
v 0 -13 0
v -1 -13 0
v -1 -12 0
v 0 -12 0
v -1 -13 0
v -2 -13 0
v -2 -12 0
v -1 -12 0
v -2 -13 0
v -3 -13 0
v -3 -12 0
v -2 -12 0
v -3 -13 0
v -4 -13 0
v -4 -12 0
v -3 -12 0
v -16 -13 0
v -17 -13 0
v -17 -12 0
v -16 -12 0
v -17 -13 0
v -18 -13 0
v -18 -12 0
v -17 -12 0
v -19 -13 0
v -20 -13 0
v -20 -12 0
v -19 -12 0
v 0 -14 0
v -1 -14 0
v -1 -13 0
v 0 -13 0
v -1 -14 0
v -2 -14 0
v -2 -13 0
v -1 -13 0
v -2 -14 0
v -3 -14 0
v -3 -13 0
v -2 -13 0
v -3 -14 0
v -4 -14 0
v -4 -13 0
v -3 -13 0
v -16 -14 0
v -17 -14 0
v -17 -13 0
v -16 -13 0
v -17 -14 0
v -18 -14 0
v -18 -13 0
v -17 -13 0
v -18 -14 0
v -19 -14 0
v -19 -13 0
v -18 -13 0
v -19 -14 0
v -20 -14 0
v -20 -13 0
v -19 -13 0
v 0 -15 0
v -1 -15 0
v -1 -14 0
v 0 -14 0
v -1 -15 0
v -2 -15 0
v -2 -14 0
v -1 -14 0
v -13 -15 0
v -14 -15 0
v -14 -14 0
v -13 -14 0
v -18 -15 0
v -19 -15 0
v -19 -14 0
v -18 -14 0
v -19 -15 0
v -20 -15 0
v -20 -14 0
v -19 -14 0
v 0 -16 0
v -1 -16 0
v -1 -15 0
v 0 -15 0
v -1 -16 0
v -2 -16 0
v -2 -15 0
v -1 -15 0
v -5 -16 0
v -6 -16 0
v -6 -15 0
v -5 -15 0
v -18 -16 0
v -19 -16 0
v -19 -15 0
v -18 -15 0
v -19 -16 0
v -20 -16 0
v -20 -15 0
v -19 -15 0
v 0 -17 0
v -1 -17 0
v -1 -16 0
v 0 -16 0
v -1 -17 0
v -2 -17 0
v -2 -16 0
v -1 -16 0
v -18 -17 0
v -19 -17 0
v -19 -16 0
v -18 -16 0
v -19 -17 0
v -20 -17 0
v -20 -16 0
v -19 -16 0
v 0 -18 0
v -1 -18 0
v -1 -17 0
v 0 -17 0
v -1 -18 0
v -2 -18 0
v -2 -17 0
v -1 -17 0
v -15 -18 0
v -16 -18 0
v -16 -17 0
v -15 -17 0
v -18 -18 0
v -19 -18 0
v -19 -17 0
v -18 -17 0
v -19 -18 0
v -20 -18 0
v -20 -17 0
v -19 -17 0
v 0 -19 0
v -1 -19 0
v -1 -18 0
v 0 -18 0
v -1 -19 0
v -2 -19 0
v -2 -18 0
v -1 -18 0
v -4 -19 0
v -5 -19 0
v -5 -18 0
v -4 -18 0
v -5 -19 0
v -6 -19 0
v -6 -18 0
v -5 -18 0
v -6 -19 0
v -7 -19 0
v -7 -18 0
v -6 -18 0
v -13 -19 0
v -14 -19 0
v -14 -18 0
v -13 -18 0
v -14 -19 0
v -15 -19 0
v -15 -18 0
v -14 -18 0
v -18 -19 0
v -19 -19 0
v -19 -18 0
v -18 -18 0
v -19 -19 0
v -20 -19 0
v -20 -18 0
v -19 -18 0
v 0 -20 0
v -1 -20 0
v -1 -19 0
v 0 -19 0
v -1 -20 0
v -2 -20 0
v -2 -19 0
v -1 -19 0
v -2 -20 0
v -3 -20 0
v -3 -19 0
v -2 -19 0
v -5 -20 0
v -6 -20 0
v -6 -19 0
v -5 -19 0
v -6 -20 0
v -7 -20 0
v -7 -19 0
v -6 -19 0
v -13 -20 0
v -14 -20 0
v -14 -19 0
v -13 -19 0
v -14 -20 0
v -15 -20 0
v -15 -19 0
v -14 -19 0
v -17 -20 0
v -18 -20 0
v -18 -19 0
v -17 -19 0
v -18 -20 0
v -19 -20 0
v -19 -19 0
v -18 -19 0
v -19 -20 0
v -20 -20 0
v -20 -19 0
v -19 -19 0

# Texture cooridinates (Count = 78)
vt 0.1 0.4444444
vt 0.125 0.4444444
vt 0.125 0.4722222
vt 0.1 0.4722222
vt 0.15 0.4444444
vt 0.15 0.4722222
vt 0.075 0.4444444
vt 0.075 0.4722222
vt 0.1 0.5277778
vt 0.125 0.5277778
vt 0.125 0.5555556
vt 0.1 0.5555556
vt 0.15 0.5
vt 0.125 0.5
vt 0.075 0.5277778
vt 0.075 0.5555556
vt 0.05 0.5277778
vt 0.05 0.5555556
vt 0.175 0.4722222
vt 0.2 0.4722222
vt 0.2 0.5
vt 0.175 0.5
vt 0.15 0.5277778
vt 0.175 0.5277778
vt 0 0.1666667
vt 0.025 0.1666667
vt 0.025 0.1944444
vt 0 0.1944444
vt 0.05 0.1666667
vt 0.05 0.1944444
vt 0.075 0.1666667
vt 0.075 0.1944444
vt 0.175 0.5555556
vt 0.15 0.5555556
vt 0.025 0.05555558
vt 0.05 0.05555558
vt 0.05 0.08333331
vt 0.025 0.08333331
vt 0.025 0.1388889
vt 0.05 0.1388889
vt 0.075 0.1388889
vt 0 0.1388889
vt 0.025 0.02777779
vt 0.05 0.02777779
vt 0 0
vt 0.025 0
vt 0 0.02777779
vt 0 0.1111111
vt 0.025 0.1111111
vt 0.05 0.1111111
vt 0 0.05555558
vt 0.075 0.1111111
vt 0.05 0.6388889
vt 0.075 0.6388889
vt 0.075 0.6666666
vt 0.05 0.6666666
vt 0.1 0.6666666
vt 0.1 0.6944444
vt 0.075 0.6944444
vt 0.1 0.9444444
vt 0.125 0.9444444
vt 0.125 0.9722222
vt 0.1 0.9722222
vt 0.15 0.9444444
vt 0.15 0.9722222
vt 0.225 0.6666666
vt 0.25 0.6666666
vt 0.25 0.6944444
vt 0.225 0.6944444
vt 0.275 0.6666666
vt 0.275 0.6944444
vt 0.1 0.9166667
vt 0.125 0.9166667
vt 0.15 0.9166667
vt 0.225 0.6388889
vt 0.25 0.6388889
vt 0.275 0.6388889
vt 0.1 0.6388889

# Normal
vn 0 0 -1

# Mesh description
g outside_house_mesh_0004

# Faces
f 1/1/1 2/2/1 3/3/1 4/4/1
f 5/2/1 6/5/1 7/6/1 8/3/1
f 9/2/1 10/5/1 11/6/1 12/3/1
f 13/7/1 14/1/1 15/4/1 16/8/1
f 17/9/1 18/10/1 19/11/1 20/12/1
f 21/3/1 22/6/1 23/13/1 24/14/1
f 25/15/1 26/9/1 27/12/1 28/16/1
f 29/1/1 30/2/1 31/3/1 32/4/1
f 33/7/1 34/1/1 35/4/1 36/8/1
f 37/9/1 38/10/1 39/11/1 40/12/1
f 41/15/1 42/9/1 43/12/1 44/16/1
f 45/1/1 46/2/1 47/3/1 48/4/1
f 49/2/1 50/5/1 51/6/1 52/3/1
f 53/2/1 54/5/1 55/6/1 56/3/1
f 57/2/1 58/5/1 59/6/1 60/3/1
f 61/2/1 62/5/1 63/6/1 64/3/1
f 65/2/1 66/5/1 67/6/1 68/3/1
f 69/7/1 70/1/1 71/4/1 72/8/1
f 73/17/1 74/15/1 75/16/1 76/18/1
f 77/19/1 78/20/1 79/21/1 80/22/1
f 81/19/1 82/20/1 83/21/1 84/22/1
f 85/14/1 86/13/1 87/23/1 88/10/1
f 89/2/1 90/5/1 91/6/1 92/3/1
f 93/2/1 94/5/1 95/6/1 96/3/1
f 97/2/1 98/5/1 99/6/1 100/3/1
f 101/13/1 102/22/1 103/24/1 104/23/1
f 105/14/1 106/13/1 107/23/1 108/10/1
f 109/2/1 110/5/1 111/6/1 112/3/1
f 113/2/1 114/5/1 115/6/1 116/3/1
f 117/13/1 118/22/1 119/24/1 120/23/1
f 121/25/1 122/26/1 123/27/1 124/28/1
f 125/26/1 126/29/1 127/30/1 128/27/1
f 129/26/1 130/29/1 131/30/1 132/27/1
f 133/29/1 134/31/1 135/32/1 136/30/1
f 137/6/1 138/19/1 139/22/1 140/13/1
f 141/17/1 142/15/1 143/16/1 144/18/1
f 145/19/1 146/20/1 147/21/1 148/22/1
f 149/9/1 150/10/1 151/11/1 152/12/1
f 153/23/1 154/24/1 155/33/1 156/34/1
f 157/25/1 158/26/1 159/27/1 160/28/1
f 161/26/1 162/29/1 163/30/1 164/27/1
f 165/26/1 166/29/1 167/30/1 168/27/1
f 169/35/1 170/36/1 171/37/1 172/38/1
f 173/39/1 174/40/1 175/29/1 176/26/1
f 177/39/1 178/40/1 179/29/1 180/26/1
f 181/40/1 182/41/1 183/31/1 184/29/1
f 185/10/1 186/23/1 187/34/1 188/11/1
f 189/15/1 190/9/1 191/12/1 192/16/1
f 193/17/1 194/15/1 195/16/1 196/18/1
f 197/19/1 198/20/1 199/21/1 200/22/1
f 201/17/1 202/15/1 203/16/1 204/18/1
f 205/19/1 206/20/1 207/21/1 208/22/1
f 209/42/1 210/39/1 211/26/1 212/25/1
f 213/43/1 214/44/1 215/36/1 216/35/1
f 217/43/1 218/44/1 219/36/1 220/35/1
f 221/39/1 222/40/1 223/29/1 224/26/1
f 225/45/1 226/46/1 227/43/1 228/47/1
f 229/39/1 230/40/1 231/29/1 232/26/1
f 233/40/1 234/41/1 235/31/1 236/29/1
f 237/6/1 238/19/1 239/22/1 240/13/1
f 241/17/1 242/15/1 243/16/1 244/18/1
f 245/17/1 246/15/1 247/16/1 248/18/1
f 249/19/1 250/20/1 251/21/1 252/22/1
f 253/17/1 254/15/1 255/16/1 256/18/1
f 257/19/1 258/20/1 259/21/1 260/22/1
f 261/48/1 262/49/1 263/39/1 264/42/1
f 265/49/1 266/50/1 267/40/1 268/39/1
f 269/49/1 270/50/1 271/40/1 272/39/1
f 273/38/1 274/37/1 275/50/1 276/49/1
f 277/45/1 278/46/1 279/43/1 280/47/1
f 281/47/1 282/43/1 283/35/1 284/51/1
f 285/40/1 286/41/1 287/31/1 288/29/1
f 289/14/1 290/13/1 291/23/1 292/10/1
f 293/2/1 294/5/1 295/6/1 296/3/1
f 297/7/1 298/1/1 299/4/1 300/8/1
f 301/9/1 302/10/1 303/11/1 304/12/1
f 305/1/1 306/2/1 307/3/1 308/4/1
f 309/13/1 310/22/1 311/24/1 312/23/1
f 313/48/1 314/49/1 315/39/1 316/42/1
f 317/49/1 318/50/1 319/40/1 320/39/1
f 321/49/1 322/50/1 323/40/1 324/39/1
f 325/50/1 326/52/1 327/41/1 328/40/1
f 329/10/1 330/23/1 331/34/1 332/11/1
f 333/15/1 334/9/1 335/12/1 336/16/1
f 337/17/1 338/15/1 339/16/1 340/18/1
f 341/9/1 342/10/1 343/11/1 344/12/1
f 345/23/1 346/24/1 347/33/1 348/34/1
f 349/6/1 350/19/1 351/22/1 352/13/1
f 353/17/1 354/15/1 355/16/1 356/18/1
f 357/1/1 358/2/1 359/3/1 360/4/1
f 361/7/1 362/1/1 363/4/1 364/8/1
f 365/19/1 366/20/1 367/21/1 368/22/1
f 369/53/1 370/54/1 371/55/1 372/56/1
f 373/55/1 374/57/1 375/58/1 376/59/1
f 377/14/1 378/13/1 379/23/1 380/10/1
f 381/7/1 382/1/1 383/4/1 384/8/1
f 385/19/1 386/20/1 387/21/1 388/22/1
f 389/6/1 390/19/1 391/22/1 392/13/1
f 393/19/1 394/20/1 395/21/1 396/22/1
f 397/7/1 398/1/1 399/4/1 400/8/1
f 401/9/1 402/10/1 403/11/1 404/12/1
f 405/15/1 406/9/1 407/12/1 408/16/1
f 409/19/1 410/20/1 411/21/1 412/22/1
f 413/14/1 414/13/1 415/23/1 416/10/1
f 417/7/1 418/1/1 419/4/1 420/8/1
f 421/17/1 422/15/1 423/16/1 424/18/1
f 425/19/1 426/20/1 427/21/1 428/22/1
f 429/6/1 430/19/1 431/22/1 432/13/1
f 433/1/1 434/2/1 435/3/1 436/4/1
f 437/13/1 438/22/1 439/24/1 440/23/1
f 441/6/1 442/19/1 443/22/1 444/13/1
f 445/9/1 446/10/1 447/11/1 448/12/1
f 449/23/1 450/24/1 451/33/1 452/34/1
f 453/60/1 454/61/1 455/62/1 456/63/1
f 457/61/1 458/64/1 459/65/1 460/62/1
f 461/66/1 462/67/1 463/68/1 464/69/1
f 465/67/1 466/70/1 467/71/1 468/68/1
f 469/6/1 470/19/1 471/22/1 472/13/1
f 473/7/1 474/1/1 475/4/1 476/8/1
f 477/19/1 478/20/1 479/21/1 480/22/1
f 481/72/1 482/73/1 483/61/1 484/60/1
f 485/73/1 486/74/1 487/64/1 488/61/1
f 489/75/1 490/76/1 491/67/1 492/66/1
f 493/76/1 494/77/1 495/70/1 496/67/1
f 497/10/1 498/23/1 499/34/1 500/11/1
f 501/15/1 502/9/1 503/12/1 504/16/1
f 505/15/1 506/9/1 507/12/1 508/16/1
f 509/19/1 510/20/1 511/21/1 512/22/1
f 513/54/1 514/78/1 515/57/1 516/55/1
f 517/6/1 518/19/1 519/22/1 520/13/1
f 521/17/1 522/15/1 523/16/1 524/18/1
f 525/17/1 526/15/1 527/16/1 528/18/1
f 529/19/1 530/20/1 531/21/1 532/22/1
f 533/54/1 534/78/1 535/57/1 536/55/1
f 537/14/1 538/13/1 539/23/1 540/10/1
f 541/7/1 542/1/1 543/4/1 544/8/1
f 545/17/1 546/15/1 547/16/1 548/18/1
f 549/19/1 550/20/1 551/21/1 552/22/1
f 553/10/1 554/23/1 555/34/1 556/11/1
f 557/15/1 558/9/1 559/12/1 560/16/1
f 561/17/1 562/15/1 563/16/1 564/18/1
f 565/19/1 566/20/1 567/21/1 568/22/1
f 569/53/1 570/54/1 571/55/1 572/56/1
f 573/6/1 574/19/1 575/22/1 576/13/1
f 577/17/1 578/15/1 579/16/1 580/18/1
f 581/7/1 582/1/1 583/4/1 584/8/1
f 585/19/1 586/20/1 587/21/1 588/22/1
f 589/53/1 590/54/1 591/55/1 592/56/1
f 593/10/1 594/23/1 595/34/1 596/11/1
f 597/23/1 598/24/1 599/33/1 600/34/1
f 601/10/1 602/23/1 603/34/1 604/11/1
f 605/23/1 606/24/1 607/33/1 608/34/1
f 609/6/1 610/19/1 611/22/1 612/13/1
f 613/1/1 614/2/1 615/3/1 616/4/1
f 617/6/1 618/19/1 619/22/1 620/13/1
f 621/9/1 622/10/1 623/11/1 624/12/1
f 625/23/1 626/24/1 627/33/1 628/34/1
f 629/14/1 630/13/1 631/23/1 632/10/1
f 633/13/1 634/22/1 635/24/1 636/23/1
f 637/14/1 638/13/1 639/23/1 640/10/1
f 641/13/1 642/22/1 643/24/1 644/23/1
f 645/10/1 646/23/1 647/34/1 648/11/1
f 649/15/1 650/9/1 651/12/1 652/16/1
f 653/19/1 654/20/1 655/21/1 656/22/1

