# Tiled2Unity generated file. Do not modify by hand.
# Wavefront file for 'outside_house_mesh_0005.obj'

# Vertices (Count = 232)
v -3 -3 0
v -4 -3 0
v -4 -2 0
v -3 -2 0
v -3 -4 0
v -4 -4 0
v -4 -3 0
v -3 -3 0
v -3 -5 0
v -4 -5 0
v -4 -4 0
v -3 -4 0
v -3 -6 0
v -4 -6 0
v -4 -5 0
v -3 -5 0
v -3 -7 0
v -4 -7 0
v -4 -6 0
v -3 -6 0
v -3 -8 0
v -4 -8 0
v -4 -7 0
v -3 -7 0
v -3 -9 0
v -4 -9 0
v -4 -8 0
v -3 -8 0
v -16 -9 0
v -17 -9 0
v -17 -8 0
v -16 -8 0
v -17 -9 0
v -18 -9 0
v -18 -8 0
v -17 -8 0
v -3 -10 0
v -4 -10 0
v -4 -9 0
v -3 -9 0
v -10 -10 0
v -11 -10 0
v -11 -9 0
v -10 -9 0
v -11 -10 0
v -12 -10 0
v -12 -9 0
v -11 -9 0
v -14 -10 0
v -15 -10 0
v -15 -9 0
v -14 -9 0
v -16 -10 0
v -17 -10 0
v -17 -9 0
v -16 -9 0
v -17 -10 0
v -18 -10 0
v -18 -9 0
v -17 -9 0
v -3 -11 0
v -4 -11 0
v -4 -10 0
v -3 -10 0
v -4 -11 0
v -5 -11 0
v -5 -10 0
v -4 -10 0
v -5 -11 0
v -6 -11 0
v -6 -10 0
v -5 -10 0
v -6 -11 0
v -7 -11 0
v -7 -10 0
v -6 -10 0
v -7 -11 0
v -8 -11 0
v -8 -10 0
v -7 -10 0
v -8 -11 0
v -9 -11 0
v -9 -10 0
v -8 -10 0
v -9 -11 0
v -10 -11 0
v -10 -10 0
v -9 -10 0
v -10 -11 0
v -11 -11 0
v -11 -10 0
v -10 -10 0
v -11 -11 0
v -12 -11 0
v -12 -10 0
v -11 -10 0
v -12 -11 0
v -13 -11 0
v -13 -10 0
v -12 -10 0
v -13 -11 0
v -14 -11 0
v -14 -10 0
v -13 -10 0
v -14 -11 0
v -15 -11 0
v -15 -10 0
v -14 -10 0
v -15 -11 0
v -16 -11 0
v -16 -10 0
v -15 -10 0
v -16 -11 0
v -17 -11 0
v -17 -10 0
v -16 -10 0
v -17 -11 0
v -18 -11 0
v -18 -10 0
v -17 -10 0
v -3 -12 0
v -4 -12 0
v -4 -11 0
v -3 -11 0
v -4 -12 0
v -5 -12 0
v -5 -11 0
v -4 -11 0
v -5 -12 0
v -6 -12 0
v -6 -11 0
v -5 -11 0
v -6 -12 0
v -7 -12 0
v -7 -11 0
v -6 -11 0
v -7 -12 0
v -8 -12 0
v -8 -11 0
v -7 -11 0
v -8 -12 0
v -9 -12 0
v -9 -11 0
v -8 -11 0
v -9 -12 0
v -10 -12 0
v -10 -11 0
v -9 -11 0
v -10 -12 0
v -11 -12 0
v -11 -11 0
v -10 -11 0
v -11 -12 0
v -12 -12 0
v -12 -11 0
v -11 -11 0
v -12 -12 0
v -13 -12 0
v -13 -11 0
v -12 -11 0
v -13 -12 0
v -14 -12 0
v -14 -11 0
v -13 -11 0
v -14 -12 0
v -15 -12 0
v -15 -11 0
v -14 -11 0
v -15 -12 0
v -16 -12 0
v -16 -11 0
v -15 -11 0
v -16 -12 0
v -17 -12 0
v -17 -11 0
v -16 -11 0
v -17 -12 0
v -18 -12 0
v -18 -11 0
v -17 -11 0
v -3 -13 0
v -4 -13 0
v -4 -12 0
v -3 -12 0
v -4 -13 0
v -5 -13 0
v -5 -12 0
v -4 -12 0
v -5 -13 0
v -6 -13 0
v -6 -12 0
v -5 -12 0
v -6 -13 0
v -7 -13 0
v -7 -12 0
v -6 -12 0
v -7 -13 0
v -8 -13 0
v -8 -12 0
v -7 -12 0
v -8 -13 0
v -9 -13 0
v -9 -12 0
v -8 -12 0
v -9 -13 0
v -10 -13 0
v -10 -12 0
v -9 -12 0
v -10 -13 0
v -11 -13 0
v -11 -12 0
v -10 -12 0
v -11 -13 0
v -12 -13 0
v -12 -12 0
v -11 -12 0
v -14 -13 0
v -15 -13 0
v -15 -12 0
v -14 -12 0
v -15 -13 0
v -16 -13 0
v -16 -12 0
v -15 -12 0
v -16 -13 0
v -17 -13 0
v -17 -12 0
v -16 -12 0
v -17 -13 0
v -18 -13 0
v -18 -12 0
v -17 -12 0

# Texture cooridinates (Count = 42)
vt 0.1 0.7222222
vt 0.125 0.7222222
vt 0.125 0.75
vt 0.1 0.75
vt 0.1 0.6944444
vt 0.125 0.6944444
vt 0.15 0.7222222
vt 0.175 0.7222222
vt 0.175 0.75
vt 0.15 0.75
vt 0.175 0.6111111
vt 0.2 0.6111111
vt 0.2 0.6388889
vt 0.175 0.6388889
vt 0.15 0.6944444
vt 0.175 0.6944444
vt 0.175 0.5833334
vt 0.2 0.5833334
vt 0.1 0.6666666
vt 0.125 0.6666666
vt 0.15 0.6666666
vt 0.175 0.6666666
vt 0.275 0.8333333
vt 0.3 0.8333333
vt 0.3 0.8611111
vt 0.275 0.8611111
vt 0.325 0.8333333
vt 0.325 0.8611111
vt 0.1 0.5833334
vt 0.125 0.5833334
vt 0.125 0.6111111
vt 0.1 0.6111111
vt 0.15 0.5833334
vt 0.15 0.6111111
vt 0.275 0.8055556
vt 0.3 0.8055556
vt 0.325 0.8055556
vt 0.1 0.5555556
vt 0.125 0.5555556
vt 0.15 0.5555556
vt 0.175 0.5555556
vt 0.2 0.5555556

# Normal
vn 0 0 -1

# Mesh description
g outside_house_mesh_0005

# Faces
f 1/1/1 2/2/1 3/3/1 4/4/1
f 5/5/1 6/6/1 7/2/1 8/1/1
f 9/5/1 10/6/1 11/2/1 12/1/1
f 13/5/1 14/6/1 15/2/1 16/1/1
f 17/5/1 18/6/1 19/2/1 20/1/1
f 21/5/1 22/6/1 23/2/1 24/1/1
f 25/5/1 26/6/1 27/2/1 28/1/1
f 29/7/1 30/8/1 31/9/1 32/10/1
f 33/11/1 34/12/1 35/13/1 36/14/1
f 37/5/1 38/6/1 39/2/1 40/1/1
f 41/7/1 42/8/1 43/9/1 44/10/1
f 45/11/1 46/12/1 47/13/1 48/14/1
f 49/1/1 50/2/1 51/3/1 52/4/1
f 53/15/1 54/16/1 55/8/1 56/7/1
f 57/17/1 58/18/1 59/12/1 60/11/1
f 61/19/1 62/20/1 63/6/1 64/5/1
f 65/20/1 66/21/1 67/15/1 68/6/1
f 69/20/1 70/21/1 71/15/1 72/6/1
f 73/20/1 74/21/1 75/15/1 76/6/1
f 77/20/1 78/21/1 79/15/1 80/6/1
f 81/20/1 82/21/1 83/15/1 84/6/1
f 85/20/1 86/21/1 87/15/1 88/6/1
f 89/21/1 90/22/1 91/16/1 92/15/1
f 93/23/1 94/24/1 95/25/1 96/26/1
f 97/24/1 98/27/1 99/28/1 100/25/1
f 101/24/1 102/27/1 103/28/1 104/25/1
f 105/19/1 106/20/1 107/6/1 108/5/1
f 109/20/1 110/21/1 111/15/1 112/6/1
f 113/21/1 114/22/1 115/16/1 116/15/1
f 117/17/1 118/18/1 119/12/1 120/11/1
f 121/29/1 122/30/1 123/31/1 124/32/1
f 125/30/1 126/33/1 127/34/1 128/31/1
f 129/30/1 130/33/1 131/34/1 132/31/1
f 133/30/1 134/33/1 135/34/1 136/31/1
f 137/30/1 138/33/1 139/34/1 140/31/1
f 141/30/1 142/33/1 143/34/1 144/31/1
f 145/30/1 146/33/1 147/34/1 148/31/1
f 149/33/1 150/17/1 151/11/1 152/34/1
f 153/35/1 154/36/1 155/24/1 156/23/1
f 157/36/1 158/37/1 159/27/1 160/24/1
f 161/36/1 162/37/1 163/27/1 164/24/1
f 165/29/1 166/30/1 167/31/1 168/32/1
f 169/30/1 170/33/1 171/34/1 172/31/1
f 173/33/1 174/17/1 175/11/1 176/34/1
f 177/17/1 178/18/1 179/12/1 180/11/1
f 181/38/1 182/39/1 183/30/1 184/29/1
f 185/39/1 186/40/1 187/33/1 188/30/1
f 189/39/1 190/40/1 191/33/1 192/30/1
f 193/39/1 194/40/1 195/33/1 196/30/1
f 197/39/1 198/40/1 199/33/1 200/30/1
f 201/39/1 202/40/1 203/33/1 204/30/1
f 205/39/1 206/40/1 207/33/1 208/30/1
f 209/40/1 210/41/1 211/17/1 212/33/1
f 213/41/1 214/42/1 215/18/1 216/17/1
f 217/38/1 218/39/1 219/30/1 220/29/1
f 221/39/1 222/40/1 223/33/1 224/30/1
f 225/40/1 226/41/1 227/17/1 228/33/1
f 229/41/1 230/42/1 231/18/1 232/17/1

