# Tiled2Unity generated file. Do not modify by hand.
# Wavefront file for 'inside_house_mesh_0004.obj'

# Vertices (Count = 32)
v -2 -3 0
v -3 -3 0
v -3 -2 0
v -2 -2 0
v -3 -3 0
v -4 -3 0
v -4 -2 0
v -3 -2 0
v -2 -5 0
v -3 -5 0
v -3 -4 0
v -2 -4 0
v -3 -5 0
v -4 -5 0
v -4 -4 0
v -3 -4 0
v -7 -5 0
v -8 -5 0
v -8 -4 0
v -7 -4 0
v -2 -6 0
v -3 -6 0
v -3 -5 0
v -2 -5 0
v -7 -6 0
v -8 -6 0
v -8 -5 0
v -7 -5 0
v -2 -7 0
v -3 -7 0
v -3 -6 0
v -2 -6 0

# Texture cooridinates (Count = 24)
vt 0.25 0.48
vt 0.275 0.48
vt 0.275 0.52
vt 0.25 0.52
vt 0.3 0.48
vt 0.3 0.52
vt 0.425 0.8
vt 0.45 0.8
vt 0.45 0.84
vt 0.425 0.84
vt 0.225 0.64
vt 0.25 0.64
vt 0.25 0.68
vt 0.225 0.68
vt 0.2 0.48
vt 0.225 0.48
vt 0.225 0.52
vt 0.2 0.52
vt 0.425 0.76
vt 0.45 0.76
vt 0.2 0.44
vt 0.225 0.44
vt 0.425 0.72
vt 0.45 0.72

# Normal
vn 0 0 -1

# Mesh description
g inside_house_mesh_0004

# Faces
f 1/1/1 2/2/1 3/3/1 4/4/1
f 5/2/1 6/5/1 7/6/1 8/3/1
f 9/7/1 10/8/1 11/9/1 12/10/1
f 13/11/1 14/12/1 15/13/1 16/14/1
f 17/15/1 18/16/1 19/17/1 20/18/1
f 21/19/1 22/20/1 23/8/1 24/7/1
f 25/21/1 26/22/1 27/16/1 28/15/1
f 29/23/1 30/24/1 31/20/1 32/19/1

